HIERARCHY
ROOT Hips
{
  OFFSET 0 0 0
  CHANNELS 6 Xposition Yposition Zposition Zrotation Yrotation Xrotation
  JOINT LeftThigh
  {
    OFFSET 8.409438 0 -5.917753
    CHANNELS 3 Zrotation Yrotation Xrotation
    JOINT LeftLeg
    {
      OFFSET 0 0 -42.358652
      CHANNELS 3 Zrotation Yrotation Xrotation
      JOINT LeftFoot
      {
        OFFSET 0 0 -39.357303
        CHANNELS 3 Zrotation Yrotation Xrotation
      }
    }
  }
  JOINT RightThigh
  {
    OFFSET -8.409438 0 -5.917753
    CHANNELS 3 Zrotation Yrotation Xrotation
    JOINT RightLeg
    {
      OFFSET 0 0 -42.358652
      CHANNELS 3 Zrotation Yrotation Xrotation
      JOINT RightFoot
      {
        OFFSET 0 0 -39.357303
        CHANNELS 3 Zrotation Yrotation Xrotation
      }
    }
  }
  JOINT SpineLow
  {
    OFFSET 0 0 4.719101
    CHANNELS 3 Zrotation Yrotation Xrotation
    JOINT SpineMid
    {
      OFFSET 0 0 12.899191
      CHANNELS 3 Zrotation Yrotation Xrotation
      JOINT Chest
      {
        OFFSET 0 0 12.899191
        CHANNELS 3 Zrotation Yrotation Xrotation
        JOINT LeftShoulder
        {
          OFFSET 7.550562 1.41573 9.438202
          CHANNELS 3 Zrotation Yrotation Xrotation
          JOINT LeftArm
          {
            OFFSET 9.155056 0 4.247191
            CHANNELS 3 Zrotation Yrotation Xrotation
            JOINT LeftForearm
            {
              OFFSET 0 0 25.771955
              CHANNELS 3 Zrotation Yrotation Xrotation
              JOINT LeftHand
              {
                OFFSET 0 0 25.197169
                CHANNELS 3 Zrotation Yrotation Xrotation
              }
            }
          }
        }
        JOINT RightShoulder
        {
          OFFSET -7.550562 1.41573 9.438202
          CHANNELS 3 Zrotation Yrotation Xrotation
          JOINT RightArm
          {
            OFFSET -9.155056 0 4.247191
            CHANNELS 3 Zrotation Yrotation Xrotation
            JOINT RightForearm
            {
              OFFSET 0 0 -25.771955
              CHANNELS 3 Zrotation Yrotation Xrotation
              JOINT RightHand
              {
                OFFSET 0 0 -25.197169
                CHANNELS 3 Zrotation Yrotation Xrotation
              }
            }
          }
        }
        JOINT Neck
        {
          OFFSET 0 0 15.101124
          CHANNELS 3 Zrotation Yrotation Xrotation
          JOINT Head
          {
            OFFSET 0 0 11.325843
            CHANNELS 3 Zrotation Yrotation Xrotation
            End Site
            {
              OFFSET 0 0 14.157303
            }
          }
        }
      }
    }
  }
}
MOTION
Frames: 14
Frame Time: 0.0
0.0  101.685394  0.0  -3.415998  -14.489017  -99.620391  43.791048  -20.992492  -28.18768  -17.609574  16.922421  36.03532  -2.311873  -0.327528  2.843661  -9.577978  5.073096  18.275986  4.610939  7.820637  12.329464  6.314591  9.633118  -0.726704  -0.749562  -1.273838  3.139348  -2.211943  -3.377498  8.62661  -2.211944  -3.377498  8.62661  -12.752238  25.854732  -2.365959  -176.977258  67.094334  -136.138847  -41.524291  -30.284256  88.554785  21.06003  -43.506485  36.708723  -0.29235  -0.421927  16.288515  88.603823  35.927566  29.872367  -6.212002  11.296742  -103.042381  73.170422  26.327735  31.174204  6.760779  -0.856702  -3.712955  5.065508  -0.683732  -2.77559  
0.0  101.685394  0.0  -3.104039  -15.295216  -100.014075  44.223735  -20.978421  -27.792709  -18.096676  17.067136  36.087459  -2.212273  -0.195116  2.788308  -8.145922  5.026695  18.793101  4.669839  7.86036  12.06619  5.881864  9.550285  -0.727645  -0.643251  -1.247205  3.142551  -1.918323  -3.318646  8.629059  -1.918323  -3.318646  8.629059  -12.666681  25.707361  -2.269366  -177.479847  66.881643  -136.465203  -41.565274  -30.411125  88.438665  21.058414  -43.372535  36.484973  -0.143579  -0.639416  16.376246  88.521616  36.760966  29.954971  -6.225999  11.032795  -103.498675  73.299911  25.864661  31.068114  6.6874  -0.817916  -3.64429  5.0108  -0.653436  -2.724608  
0.0  101.685394  0.0  -2.997537  -15.107614  -99.946157  43.674625  -20.703384  -27.728388  -18.205124  17.002028  36.41401  -2.484257  -0.124664  2.58552  -7.390786  4.795254  19.078799  4.367788  7.861195  11.601141  5.526778  9.527783  -0.686657  -0.625091  -1.251576  3.097216  -1.86708  -3.334304  8.504328  -1.86708  -3.334304  8.504328  -12.742266  25.600901  -2.300785  -178.080272  66.743955  -137.020972  -41.654946  -30.322576  88.582186  20.883087  -43.267838  36.43006  -0.207194  -0.819501  16.324667  88.415854  37.550278  29.937272  -6.367757  10.721973  -103.940478  73.439054  25.405804  30.969259  6.561322  -0.774516  -3.573379  4.916588  -0.619363  -2.672043  
0.0  101.685394  0.0  -2.709262  -15.917037  -100.372619  43.965839  -20.70091  -27.342156  -18.168094  16.86459  36.845895  -2.674807  -0.01765  2.471181  -5.558402  4.647402  19.916826  4.030666  7.82692  11.036133  5.099649  9.49154  -0.676465  -0.480536  -1.230069  3.113925  -1.470423  -3.293846  8.542214  -1.470423  -3.293847  8.542214  -12.87806  25.3976  -2.300389  -179.07721  66.701994  -137.547557  -41.852242  -30.607245  88.337085  20.882878  -43.13399  36.213117  -0.656045  -1.350883  15.899047  89.080729  37.869343  30.526857  -6.459099  10.314665  -104.397141  73.586106  25.006315  30.852912  6.459359  -0.733099  -3.497531  4.840446  -0.586893  -2.61571  
0.0  101.685394  0.0  -2.589743  -15.614934  -100.309437  43.335473  -20.313631  -27.245036  -18.042063  16.583581  37.348334  -3.177008  0.088821  2.234353  -5.069083  4.536643  20.339546  3.752559  7.819175  10.390247  4.702373  9.50917  -0.664892  -0.467211  -1.233594  3.063513  -1.432017  -3.306363  8.403779  -1.432017  -3.306363  8.403779  -13.057409  25.296054  -2.363609  -179.692293  66.621755  -138.128191  -41.977191  -30.524879  88.520189  20.70791  -43.047913  36.151666  -0.746087  -1.56724  15.615429  88.976843  38.352514  30.51094  -6.539599  9.867356  -104.807715  73.663359  24.732583  30.706409  6.316781  -0.694545  -3.412322  4.733825  -0.556271  -2.552354  
0.0  101.685394  0.0  -2.302182  -16.398029  -100.711742  43.693584  -20.2119  -26.858485  -17.752172  16.216127  38.074116  -3.812762  0.224599  1.894781  -3.498349  4.537536  21.254321  3.439406  7.757786  9.701906  4.257986  9.529825  -0.717996  -0.316123  -1.213063  3.074294  -1.017384  -3.26938  8.42533  -1.017384  -3.26938  8.42533  -13.131242  25.168834  -2.36329  179.279903  66.68068  -138.65232  -42.145081  -30.744423  88.385021  20.747819  -42.948461  35.862119  -1.282791  -2.12347  14.89907  89.776298  38.232596  31.122912  -6.549236  9.3411  -105.252669  73.781048  24.900214  30.597777  6.222236  -0.660211  -3.317999  4.663205  -0.529025  -2.482055  
0.0  101.685394  0.0  -2.170791  -16.050305  -100.57207  43.173128  -19.716646  -26.747437  -17.826111  16.029239  38.575207  -4.232816  0.36225  1.599736  -3.35563  4.613942  21.622161  3.284757  7.707375  9.058678  3.807422  9.668914  -0.782694  -0.319257  -1.210823  3.001307  -1.022082  -3.264119  8.225783  -1.022082  -3.264119  8.225782  -13.189874  25.10377  -2.412139  178.650301  66.609554  -139.202593  -42.18953  -30.730662  88.578141  20.597337  -42.918163  35.708329  -1.252307  -2.329269  14.400937  89.598292  38.295905  31.027159  -6.550208  8.820654  -105.610766  73.831225  24.781602  30.451174  6.130011  -0.637599  -3.194853  4.594277  -0.510324  -2.390004  
0.0  101.685394  0.0  -1.98192  -15.820492  -100.454474  42.819171  -19.242936  -26.604832  -17.895996  15.916777  39.077585  -4.881163  0.488322  1.184358  -3.307588  4.853863  21.94033  3.143281  7.650442  8.472241  3.502751  9.830189  -0.863998  -0.320156  -1.198844  2.915481  -1.018872  -3.232785  7.990786  -1.018872  -3.232785  7.990786  -13.166301  25.020681  -2.405792  177.859952  66.54139  -139.75075  -42.196979  -30.800684  88.737027  20.684577  -42.863297  35.267411  -1.124414  -2.492683  13.934396  89.388038  38.192339  30.879116  -6.404652  8.28427  -105.993303  73.925784  24.726233  30.307804  6.077456  -0.615152  -3.038058  4.555124  -0.491649  -2.27267  
0.0  101.685394  0.0  -1.792413  -15.417282  -100.252722  42.347811  -18.691829  -26.449512  -18.00456  15.873315  39.517205  -5.432983  0.537325  0.747869  -3.497652  5.211881  22.157911  2.937214  7.585747  7.943234  3.329632  9.996556  -0.953059  -0.320458  -1.184484  2.816631  -1.013209  -3.195233  7.720086  -1.013209  -3.195233  7.720086  -13.247541  24.95833  -2.471992  177.068769  66.474967  -140.45802  -42.182573  -30.804101  88.914198  20.563066  -42.900265  35.037712  -1.068661  -2.631663  13.491557  89.00414  38.038123  30.621367  -6.389789  7.798548  -106.322619  74.116819  24.595259  30.355554  5.959668  -0.608642  -2.868643  4.46697  -0.484524  -2.145769  
0.0  101.685394  0.0  -1.548766  -15.025202  -100.091905  41.858134  -18.075188  -26.175484  -18.263637  15.866369  39.813134  -5.590515  0.605362  0.392719  -3.852979  5.763749  22.335505  2.757503  7.502548  7.519072  3.285858  10.183771  -1.049682  -0.319943  -1.155698  2.710827  -1.003462  -3.118496  7.430016  -1.003461  -3.118496  7.430016  -13.398915  24.769745  -2.492884  176.31959  66.316824  -141.132714  -42.149204  -30.780389  89.163712  20.711773  -42.886192  34.519138  -1.029189  -2.811418  13.030182  88.631632  37.673129  30.372095  -6.009403  7.329424  -106.702052  74.566109  24.486902  30.782773  5.844346  -0.618998  -2.664136  4.380617  -0.489791  -1.992379  
0.0  101.685394  0.0  -1.313805  -14.574119  -99.924035  41.329446  -17.381728  -25.784277  -18.587325  15.848002  40.001983  -5.391021  0.608512  0.118429  -4.386803  6.41669  22.464939  2.645727  7.446578  7.218879  3.388332  10.396405  -1.136619  -0.319384  -1.134396  2.590476  -0.993991  -3.062392  7.10035  -0.993991  -3.062392  7.100349  -13.478052  24.736934  -2.478373  175.321069  66.229412  -142.051726  -42.13988  -30.804146  89.313123  20.62494  -42.93193  34.232659  -0.930276  -2.907526  12.679383  87.992253  37.261679  29.999409  -5.969385  6.946714  -106.971712  74.707351  24.460242  30.893405  5.704563  -0.602198  -2.397025  4.276099  -0.474081  -1.792316  
0.0  101.685394  0.0  -0.981071  -14.149413  -99.826258  40.694639  -16.547365  -25.116673  -19.101592  15.909693  39.852818  -4.680626  0.501881  0.066193  -4.98542  7.248011  22.536246  2.630485  7.426469  7.134489  3.559593  10.649366  -1.239059  -0.324657  -1.093172  2.472707  -0.998711  -2.951227  6.777601  -0.998711  -2.951227  6.777601  -13.469954  24.701262  -2.418098  174.247991  66.110082  -143.002108  -42.102024  -30.726484  89.64953  20.765229  -42.867824  33.674048  -0.712774  -3.027936  12.368264  87.274958  36.73923  29.640249  -5.66671  6.530409  -107.295206  74.971256  24.562779  31.144811  5.603563  -0.583579  -2.117253  4.200674  -0.45715  -1.582733  
0.0  101.685394  0.0  -0.660693  -13.769227  -99.822513  40.146294  -15.52018  -24.176626  -19.396695  15.3389  39.705513  -4.551303  0.409432  0.031727  -5.622206  8.121318  22.541157  2.809595  7.456658  7.377606  3.722214  10.984765  -1.345248  -0.332056  -1.052411  2.389826  -1.011174  -2.840552  6.550392  -1.011174  -2.840553  6.550392  -13.433433  24.686347  -2.421543  173.259782  66.004053  -143.86507  -42.113476  -30.759123  89.799382  20.616679  -42.845508  33.464143  -0.404688  -3.164226  11.966024  86.455595  36.145339  29.29678  -5.47628  6.089312  -107.599954  75.053277  24.805823  31.111617  5.533258  -0.549851  -1.927599  4.148227  -0.429888  -1.44085  
0.0  101.685394  0.0  -0.253705  -13.46639  -99.987993  39.96739  -14.334972  -22.919727  -19.940519  14.321906  39.365009  -5.193701  0.49619  -0.082207  -6.208334  9.065623  22.469657  3.203515  7.540473  8.028446  3.746637  11.423082  -1.450618  -0.31933  -0.995897  2.339666  -0.968737  -2.688308  6.411536  -0.968737  -2.688308  6.411536  -13.487946  24.676534  -2.450329  172.377607  65.885653  -144.619525  -42.081529  -30.569918  90.198078  20.954929  -42.654493  32.836711  -0.117164  -3.308549  11.670015  85.572943  35.58357  28.932524  -4.976904  5.588083  -107.930844  75.345861  25.132962  31.275597  5.422439  -0.522159  -1.819889  4.06529  -0.407809  -1.360401  
